<svg width="24" height="24" viewBox="0 0 24 24" fill="none" xmlns="http://www.w3.org/2000/svg">
<path d="M8.05233 5.83643C9.21775 5.32371 10.5325 5 12.0003 5C14.9555 5 17.3092 6.31526 19.0607 7.86423C20.8162 9.41671 21.9263 11.1704 22.3678 11.9444C22.3795 11.9649 22.3833 11.9832 22.3832 11.9992C22.3832 12.0153 22.3791 12.0356 22.3658 12.0588C22.1 12.5245 21.5885 13.3514 20.8357 14.2767C20.5743 14.598 20.6229 15.0704 20.9442 15.3318C21.2655 15.5932 21.7379 15.5446 21.9993 15.2233C22.816 14.2195 23.3727 13.3208 23.6686 12.8024C23.9516 12.3066 23.9572 11.7035 23.6707 11.2012C23.1859 10.3512 21.98 8.44351 20.0544 6.74059C18.1248 5.03415 15.4322 3.5 12.0003 3.5C10.305 3.5 8.78539 3.87518 7.44829 4.46343C7.06914 4.63023 6.89701 5.07281 7.06381 5.45195C7.23061 5.8311 7.67319 6.00323 8.05233 5.83643Z" fill="white"/>
<path fill-rule="evenodd" clip-rule="evenodd" d="M19.1664 17.9872C17.3282 19.3787 14.9334 20.5 12.0003 20.5C8.56843 20.5 5.87583 18.9658 3.94623 17.2594C2.02061 15.5564 0.814729 13.6487 0.329918 12.7987C0.0437594 12.2971 0.0482464 11.6948 0.331615 11.1983C0.791107 10.3932 1.89688 8.64032 3.64824 7.01097L1.31721 5.36219C0.979036 5.123 0.8988 4.65495 1.13799 4.31678C1.37719 3.97861 1.84523 3.89837 2.1834 4.13757L22.6834 18.6376C23.0216 18.8768 23.1018 19.3448 22.8626 19.683C22.6234 20.0211 22.1554 20.1014 21.8172 19.8622L19.1664 17.9872ZM4.90209 7.89784C3.1715 9.43921 2.07457 11.1705 1.63438 11.9418C1.62115 11.965 1.61723 11.9849 1.61719 12.0006C1.61715 12.0161 1.62085 12.0345 1.63286 12.0556C2.07434 12.8296 3.18442 14.5832 4.93993 16.1357C6.69147 17.6847 9.04519 19 12.0003 19C14.334 19 16.291 18.1804 17.874 17.0731L14.3583 14.5864C13.7362 15.1538 12.9086 15.4999 12.0002 15.4999C10.0672 15.4999 8.50024 13.9329 8.50024 11.9999C8.50024 11.5166 8.59819 11.0562 8.77532 10.6374L4.90209 7.89784Z" fill="white"/>
</svg>
